<mxfile host="65bd71144e">
    <diagram name="ページ1" id="tOJDjhoilTn83TgK_lsh">
        <mxGraphModel dx="970" dy="702" grid="1" gridSize="10" guides="1" tooltips="1" connect="1" arrows="1" fold="1" page="1" pageScale="1" pageWidth="1169" pageHeight="827" math="1" shadow="0">
            <root>
                <mxCell id="0"/>
                <mxCell id="1" parent="0"/>
                <mxCell id="6Ajl2OQ8VZDq9jOoMLi9-55" value="" style="verticalLabelPosition=bottom;verticalAlign=top;html=1;shape=mxgraph.basic.half_circle;rotation=-180;fillColor=#CCCCCC;fillStyle=auto;gradientColor=none;" parent="1" vertex="1">
                    <mxGeometry x="220" y="620" width="120" height="60" as="geometry"/>
                </mxCell>
                <mxCell id="6Ajl2OQ8VZDq9jOoMLi9-54" value="" style="verticalLabelPosition=bottom;verticalAlign=top;html=1;shape=mxgraph.basic.half_circle;rotation=-180;fillColor=#CCCCCC;fillStyle=auto;gradientColor=none;" parent="1" vertex="1">
                    <mxGeometry x="860" y="620" width="120" height="60" as="geometry"/>
                </mxCell>
                <mxCell id="n-7C0_cSte5bx0V1YNL7-46" value="" style="verticalLabelPosition=bottom;verticalAlign=top;html=1;shape=mxgraph.basic.half_circle;rotation=-180;fillColor=#CCCCCC;fillStyle=auto;gradientColor=none;" parent="1" vertex="1">
                    <mxGeometry x="540" y="190" width="120" height="110" as="geometry"/>
                </mxCell>
                <mxCell id="n-7C0_cSte5bx0V1YNL7-47" value="" style="verticalLabelPosition=bottom;verticalAlign=top;html=1;shape=mxgraph.basic.half_circle;rotation=-180;fillColor=#CCCCCC;fillStyle=auto;gradientColor=none;" parent="1" vertex="1">
                    <mxGeometry x="860" y="190" width="120" height="110" as="geometry"/>
                </mxCell>
                <mxCell id="n-7C0_cSte5bx0V1YNL7-48" value="" style="verticalLabelPosition=bottom;verticalAlign=top;html=1;shape=mxgraph.basic.half_circle;rotation=-180;fillColor=#CCCCCC;fillStyle=auto;gradientColor=none;" parent="1" vertex="1">
                    <mxGeometry x="220" y="190" width="120" height="110" as="geometry"/>
                </mxCell>
                <mxCell id="n-7C0_cSte5bx0V1YNL7-1" value="" style="endArrow=classic;html=1;rounded=0;" parent="1" edge="1">
                    <mxGeometry width="50" height="50" relative="1" as="geometry">
                        <mxPoint x="200" y="300" as="sourcePoint"/>
                        <mxPoint x="1000" y="300" as="targetPoint"/>
                    </mxGeometry>
                </mxCell>
                <mxCell id="n-7C0_cSte5bx0V1YNL7-2" value="" style="endArrow=classic;html=1;rounded=0;exitX=0;exitY=1;exitDx=0;exitDy=0;" parent="1" source="n-7C0_cSte5bx0V1YNL7-24" edge="1">
                    <mxGeometry width="50" height="50" relative="1" as="geometry">
                        <mxPoint x="600" y="327" as="sourcePoint"/>
                        <mxPoint x="600" y="120" as="targetPoint"/>
                    </mxGeometry>
                </mxCell>
                <mxCell id="n-7C0_cSte5bx0V1YNL7-4" value="" style="endArrow=none;html=1;rounded=0;strokeWidth=2;" parent="1" edge="1">
                    <mxGeometry width="50" height="50" relative="1" as="geometry">
                        <mxPoint x="760" y="300" as="sourcePoint"/>
                        <mxPoint x="760" y="290" as="targetPoint"/>
                    </mxGeometry>
                </mxCell>
                <mxCell id="n-7C0_cSte5bx0V1YNL7-6" value="" style="endArrow=none;html=1;rounded=0;strokeWidth=2;" parent="1" edge="1">
                    <mxGeometry width="50" height="50" relative="1" as="geometry">
                        <mxPoint x="920" y="300" as="sourcePoint"/>
                        <mxPoint x="920" y="290" as="targetPoint"/>
                    </mxGeometry>
                </mxCell>
                <mxCell id="n-7C0_cSte5bx0V1YNL7-7" value="" style="endArrow=none;html=1;rounded=0;strokeWidth=2;" parent="1" edge="1">
                    <mxGeometry width="50" height="50" relative="1" as="geometry">
                        <mxPoint x="280" y="300" as="sourcePoint"/>
                        <mxPoint x="280" y="290" as="targetPoint"/>
                    </mxGeometry>
                </mxCell>
                <mxCell id="n-7C0_cSte5bx0V1YNL7-8" value="" style="endArrow=none;html=1;rounded=0;strokeWidth=2;" parent="1" edge="1">
                    <mxGeometry width="50" height="50" relative="1" as="geometry">
                        <mxPoint x="440" y="300" as="sourcePoint"/>
                        <mxPoint x="440" y="290" as="targetPoint"/>
                    </mxGeometry>
                </mxCell>
                <mxCell id="n-7C0_cSte5bx0V1YNL7-10" value="" style="endArrow=none;html=1;rounded=0;" parent="1" edge="1">
                    <mxGeometry width="50" height="50" relative="1" as="geometry">
                        <mxPoint x="840" y="300" as="sourcePoint"/>
                        <mxPoint x="840" y="290" as="targetPoint"/>
                    </mxGeometry>
                </mxCell>
                <mxCell id="n-7C0_cSte5bx0V1YNL7-11" value="" style="endArrow=none;html=1;rounded=0;" parent="1" edge="1">
                    <mxGeometry width="50" height="50" relative="1" as="geometry">
                        <mxPoint x="680" y="300" as="sourcePoint"/>
                        <mxPoint x="680" y="290" as="targetPoint"/>
                    </mxGeometry>
                </mxCell>
                <mxCell id="n-7C0_cSte5bx0V1YNL7-12" value="" style="endArrow=none;html=1;rounded=0;" parent="1" edge="1">
                    <mxGeometry width="50" height="50" relative="1" as="geometry">
                        <mxPoint x="360" y="300" as="sourcePoint"/>
                        <mxPoint x="360" y="290" as="targetPoint"/>
                    </mxGeometry>
                </mxCell>
                <mxCell id="n-7C0_cSte5bx0V1YNL7-13" value="" style="endArrow=none;html=1;rounded=0;" parent="1" edge="1">
                    <mxGeometry width="50" height="50" relative="1" as="geometry">
                        <mxPoint x="520" y="300" as="sourcePoint"/>
                        <mxPoint x="520" y="290" as="targetPoint"/>
                    </mxGeometry>
                </mxCell>
                <mxCell id="n-7C0_cSte5bx0V1YNL7-14" value="" style="endArrow=none;html=1;rounded=0;" parent="1" edge="1">
                    <mxGeometry width="50" height="50" relative="1" as="geometry">
                        <mxPoint x="800" y="300" as="sourcePoint"/>
                        <mxPoint x="800" y="290" as="targetPoint"/>
                    </mxGeometry>
                </mxCell>
                <mxCell id="n-7C0_cSte5bx0V1YNL7-15" value="" style="endArrow=none;html=1;rounded=0;" parent="1" edge="1">
                    <mxGeometry width="50" height="50" relative="1" as="geometry">
                        <mxPoint x="960" y="300" as="sourcePoint"/>
                        <mxPoint x="960" y="290" as="targetPoint"/>
                    </mxGeometry>
                </mxCell>
                <mxCell id="n-7C0_cSte5bx0V1YNL7-16" value="" style="endArrow=none;html=1;rounded=0;" parent="1" edge="1">
                    <mxGeometry width="50" height="50" relative="1" as="geometry">
                        <mxPoint x="320" y="300" as="sourcePoint"/>
                        <mxPoint x="320" y="290" as="targetPoint"/>
                    </mxGeometry>
                </mxCell>
                <mxCell id="n-7C0_cSte5bx0V1YNL7-17" value="" style="endArrow=none;html=1;rounded=0;" parent="1" edge="1">
                    <mxGeometry width="50" height="50" relative="1" as="geometry">
                        <mxPoint x="480" y="300" as="sourcePoint"/>
                        <mxPoint x="480" y="290" as="targetPoint"/>
                    </mxGeometry>
                </mxCell>
                <mxCell id="n-7C0_cSte5bx0V1YNL7-18" value="" style="endArrow=none;html=1;rounded=0;" parent="1" edge="1">
                    <mxGeometry width="50" height="50" relative="1" as="geometry">
                        <mxPoint x="880" y="300" as="sourcePoint"/>
                        <mxPoint x="880" y="290" as="targetPoint"/>
                    </mxGeometry>
                </mxCell>
                <mxCell id="n-7C0_cSte5bx0V1YNL7-19" value="" style="endArrow=none;html=1;rounded=0;" parent="1" edge="1">
                    <mxGeometry width="50" height="50" relative="1" as="geometry">
                        <mxPoint x="720" y="300" as="sourcePoint"/>
                        <mxPoint x="720" y="290" as="targetPoint"/>
                    </mxGeometry>
                </mxCell>
                <mxCell id="n-7C0_cSte5bx0V1YNL7-20" value="" style="endArrow=none;html=1;rounded=0;" parent="1" edge="1">
                    <mxGeometry width="50" height="50" relative="1" as="geometry">
                        <mxPoint x="400" y="300" as="sourcePoint"/>
                        <mxPoint x="400" y="290" as="targetPoint"/>
                    </mxGeometry>
                </mxCell>
                <mxCell id="n-7C0_cSte5bx0V1YNL7-21" value="" style="endArrow=none;html=1;rounded=0;" parent="1" edge="1">
                    <mxGeometry width="50" height="50" relative="1" as="geometry">
                        <mxPoint x="560" y="300" as="sourcePoint"/>
                        <mxPoint x="560" y="290" as="targetPoint"/>
                    </mxGeometry>
                </mxCell>
                <mxCell id="n-7C0_cSte5bx0V1YNL7-22" value="" style="endArrow=none;html=1;rounded=0;" parent="1" edge="1">
                    <mxGeometry width="50" height="50" relative="1" as="geometry">
                        <mxPoint x="640" y="300" as="sourcePoint"/>
                        <mxPoint x="640" y="290" as="targetPoint"/>
                    </mxGeometry>
                </mxCell>
                <mxCell id="n-7C0_cSte5bx0V1YNL7-23" value="" style="endArrow=none;html=1;rounded=0;" parent="1" edge="1">
                    <mxGeometry width="50" height="50" relative="1" as="geometry">
                        <mxPoint x="240" y="300" as="sourcePoint"/>
                        <mxPoint x="240" y="290" as="targetPoint"/>
                    </mxGeometry>
                </mxCell>
                <mxCell id="n-7C0_cSte5bx0V1YNL7-24" value="0" style="text;html=1;strokeColor=none;fillColor=none;align=center;verticalAlign=middle;whiteSpace=wrap;rounded=0;" parent="1" vertex="1">
                    <mxGeometry x="600" y="300" width="10" height="20" as="geometry"/>
                </mxCell>
                <mxCell id="n-7C0_cSte5bx0V1YNL7-26" value="$$\tilde{\omega}$$" style="text;html=1;strokeColor=none;fillColor=none;align=center;verticalAlign=middle;whiteSpace=wrap;rounded=0;" parent="1" vertex="1">
                    <mxGeometry x="1000" y="280" width="30" height="30" as="geometry"/>
                </mxCell>
                <mxCell id="n-7C0_cSte5bx0V1YNL7-27" value="$$\pi/T_\text{s}$$" style="text;html=1;strokeColor=none;fillColor=none;align=center;verticalAlign=middle;whiteSpace=wrap;rounded=0;" parent="1" vertex="1">
                    <mxGeometry x="730" y="270" width="60" height="30" as="geometry"/>
                </mxCell>
                <mxCell id="n-7C0_cSte5bx0V1YNL7-28" value="$$-\pi/T_\text{s}$$" style="text;html=1;strokeColor=none;fillColor=none;align=center;verticalAlign=middle;whiteSpace=wrap;rounded=0;" parent="1" vertex="1">
                    <mxGeometry x="406" y="270" width="60" height="30" as="geometry"/>
                </mxCell>
                <mxCell id="n-7C0_cSte5bx0V1YNL7-29" value="$$-2\pi/T_\text{s}$$" style="text;html=1;strokeColor=none;fillColor=none;align=center;verticalAlign=middle;whiteSpace=wrap;rounded=0;" parent="1" vertex="1">
                    <mxGeometry x="250" y="300" width="60" height="30" as="geometry"/>
                </mxCell>
                <mxCell id="n-7C0_cSte5bx0V1YNL7-31" value="$$2\pi/T_\text{s}$$" style="text;html=1;strokeColor=none;fillColor=none;align=center;verticalAlign=middle;whiteSpace=wrap;rounded=0;" parent="1" vertex="1">
                    <mxGeometry x="890" y="300" width="60" height="30" as="geometry"/>
                </mxCell>
                <mxCell id="n-7C0_cSte5bx0V1YNL7-32" value="" style="endArrow=classic;html=1;rounded=0;" parent="1" edge="1">
                    <mxGeometry width="50" height="50" relative="1" as="geometry">
                        <mxPoint x="600" y="300" as="sourcePoint"/>
                        <mxPoint x="600" y="220" as="targetPoint"/>
                    </mxGeometry>
                </mxCell>
                <mxCell id="n-7C0_cSte5bx0V1YNL7-34" value="" style="endArrow=classic;html=1;rounded=0;" parent="1" edge="1">
                    <mxGeometry width="50" height="50" relative="1" as="geometry">
                        <mxPoint x="760" y="300" as="sourcePoint"/>
                        <mxPoint x="760" y="220" as="targetPoint"/>
                    </mxGeometry>
                </mxCell>
                <mxCell id="n-7C0_cSte5bx0V1YNL7-35" value="" style="endArrow=classic;html=1;rounded=0;" parent="1" edge="1">
                    <mxGeometry width="50" height="50" relative="1" as="geometry">
                        <mxPoint x="920" y="300" as="sourcePoint"/>
                        <mxPoint x="920" y="220" as="targetPoint"/>
                    </mxGeometry>
                </mxCell>
                <mxCell id="n-7C0_cSte5bx0V1YNL7-37" value="" style="endArrow=classic;html=1;rounded=0;" parent="1" edge="1">
                    <mxGeometry width="50" height="50" relative="1" as="geometry">
                        <mxPoint x="280" y="300" as="sourcePoint"/>
                        <mxPoint x="280" y="220" as="targetPoint"/>
                    </mxGeometry>
                </mxCell>
                <mxCell id="n-7C0_cSte5bx0V1YNL7-38" value="" style="endArrow=classic;html=1;rounded=0;" parent="1" edge="1">
                    <mxGeometry width="50" height="50" relative="1" as="geometry">
                        <mxPoint x="440" y="300" as="sourcePoint"/>
                        <mxPoint x="440" y="220" as="targetPoint"/>
                    </mxGeometry>
                </mxCell>
                <mxCell id="n-7C0_cSte5bx0V1YNL7-40" value="" style="endArrow=none;html=1;rounded=0;dashed=1;entryX=0;entryY=1;entryDx=0;entryDy=0;" parent="1" target="n-7C0_cSte5bx0V1YNL7-24" edge="1">
                    <mxGeometry width="50" height="50" relative="1" as="geometry">
                        <mxPoint x="600" y="360" as="sourcePoint"/>
                        <mxPoint x="600" y="330" as="targetPoint"/>
                    </mxGeometry>
                </mxCell>
                <mxCell id="n-7C0_cSte5bx0V1YNL7-49" value="$$X_\text{d}$$" style="text;html=1;strokeColor=none;fillColor=none;align=center;verticalAlign=middle;whiteSpace=wrap;rounded=0;" parent="1" vertex="1">
                    <mxGeometry x="500" y="70" width="40" height="30" as="geometry"/>
                </mxCell>
                <mxCell id="n-7C0_cSte5bx0V1YNL7-50" value="" style="endArrow=classic;html=1;rounded=0;exitX=0.5;exitY=1;exitDx=0;exitDy=0;dashed=1;" parent="1" source="n-7C0_cSte5bx0V1YNL7-49" target="n-7C0_cSte5bx0V1YNL7-46" edge="1">
                    <mxGeometry width="50" height="50" relative="1" as="geometry">
                        <mxPoint x="610" y="330" as="sourcePoint"/>
                        <mxPoint x="610" y="130" as="targetPoint"/>
                    </mxGeometry>
                </mxCell>
                <mxCell id="n-7C0_cSte5bx0V1YNL7-52" value="" style="endArrow=classic;html=1;rounded=0;exitX=0;exitY=1;exitDx=0;exitDy=0;dashed=1;" parent="1" source="n-7C0_cSte5bx0V1YNL7-49" target="n-7C0_cSte5bx0V1YNL7-48" edge="1">
                    <mxGeometry width="50" height="50" relative="1" as="geometry">
                        <mxPoint x="530" y="110" as="sourcePoint"/>
                        <mxPoint x="330" y="160" as="targetPoint"/>
                    </mxGeometry>
                </mxCell>
                <mxCell id="n-7C0_cSte5bx0V1YNL7-53" value="" style="endArrow=classic;html=1;rounded=0;exitX=1;exitY=0.75;exitDx=0;exitDy=0;dashed=1;" parent="1" source="n-7C0_cSte5bx0V1YNL7-49" target="n-7C0_cSte5bx0V1YNL7-47" edge="1">
                    <mxGeometry width="50" height="50" relative="1" as="geometry">
                        <mxPoint x="530" y="110" as="sourcePoint"/>
                        <mxPoint x="860" y="170" as="targetPoint"/>
                    </mxGeometry>
                </mxCell>
                <mxCell id="n-7C0_cSte5bx0V1YNL7-58" value="$$\sum_{n=-\infty}^\infty\delta\left(\omega-n\frac{2\pi}{RT_\text{s}}\right)$$" style="text;html=1;strokeColor=none;fillColor=none;align=center;verticalAlign=middle;whiteSpace=wrap;rounded=0;" parent="1" vertex="1">
                    <mxGeometry x="760" y="70" width="200" height="30" as="geometry"/>
                </mxCell>
                <mxCell id="n-7C0_cSte5bx0V1YNL7-59" value="" style="endArrow=classic;html=1;rounded=0;dashed=1;exitX=0.5;exitY=1;exitDx=0;exitDy=0;" parent="1" source="n-7C0_cSte5bx0V1YNL7-58" target="n-7C0_cSte5bx0V1YNL7-60" edge="1">
                    <mxGeometry width="50" height="50" relative="1" as="geometry">
                        <mxPoint x="550" y="102" as="sourcePoint"/>
                        <mxPoint x="780" y="210" as="targetPoint"/>
                    </mxGeometry>
                </mxCell>
                <mxCell id="n-7C0_cSte5bx0V1YNL7-60" value="" style="ellipse;whiteSpace=wrap;html=1;aspect=fixed;fillColor=none;" parent="1" vertex="1">
                    <mxGeometry x="750" y="210" width="20" height="20" as="geometry"/>
                </mxCell>
                <mxCell id="n-7C0_cSte5bx0V1YNL7-61" value="" style="ellipse;whiteSpace=wrap;html=1;aspect=fixed;fillColor=none;" parent="1" vertex="1">
                    <mxGeometry x="590" y="210" width="20" height="20" as="geometry"/>
                </mxCell>
                <mxCell id="n-7C0_cSte5bx0V1YNL7-62" value="" style="endArrow=classic;html=1;rounded=0;dashed=1;exitX=0.5;exitY=1;exitDx=0;exitDy=0;" parent="1" source="n-7C0_cSte5bx0V1YNL7-58" target="n-7C0_cSte5bx0V1YNL7-61" edge="1">
                    <mxGeometry width="50" height="50" relative="1" as="geometry">
                        <mxPoint x="860" y="110" as="sourcePoint"/>
                        <mxPoint x="790" y="220" as="targetPoint"/>
                    </mxGeometry>
                </mxCell>
                <mxCell id="3rELTAIFzH0GlmF9YsQt-1" value="" style="endArrow=none;html=1;rounded=0;dashed=1;" parent="1" edge="1">
                    <mxGeometry width="50" height="50" relative="1" as="geometry">
                        <mxPoint x="760" y="380" as="sourcePoint"/>
                        <mxPoint x="760" y="300" as="targetPoint"/>
                    </mxGeometry>
                </mxCell>
                <mxCell id="3rELTAIFzH0GlmF9YsQt-2" value="" style="endArrow=none;html=1;rounded=0;dashed=1;" parent="1" edge="1">
                    <mxGeometry width="50" height="50" relative="1" as="geometry">
                        <mxPoint x="440" y="380" as="sourcePoint"/>
                        <mxPoint x="440" y="300" as="targetPoint"/>
                    </mxGeometry>
                </mxCell>
                <mxCell id="3rELTAIFzH0GlmF9YsQt-3" value="" style="endArrow=classic;html=1;rounded=0;startArrow=classic;startFill=1;dashed=1;" parent="1" edge="1">
                    <mxGeometry width="50" height="50" relative="1" as="geometry">
                        <mxPoint x="440" y="380" as="sourcePoint"/>
                        <mxPoint x="760" y="380" as="targetPoint"/>
                    </mxGeometry>
                </mxCell>
                <mxCell id="3rELTAIFzH0GlmF9YsQt-4" value="\(x_\text{d}\) 1st Nyquist zone" style="text;html=1;strokeColor=none;fillColor=none;align=center;verticalAlign=middle;whiteSpace=wrap;rounded=0;" parent="1" vertex="1">
                    <mxGeometry x="530" y="390" width="140" height="19" as="geometry"/>
                </mxCell>
                <mxCell id="ySz8lDOb1MTqAK4fywU5-1" value="" style="ellipse;whiteSpace=wrap;html=1;aspect=fixed;fillColor=none;" parent="1" vertex="1">
                    <mxGeometry x="910" y="210" width="20" height="20" as="geometry"/>
                </mxCell>
                <mxCell id="ySz8lDOb1MTqAK4fywU5-2" value="" style="endArrow=classic;html=1;rounded=0;dashed=1;exitX=0.5;exitY=1;exitDx=0;exitDy=0;" parent="1" source="n-7C0_cSte5bx0V1YNL7-58" target="ySz8lDOb1MTqAK4fywU5-1" edge="1">
                    <mxGeometry width="50" height="50" relative="1" as="geometry">
                        <mxPoint x="870" y="110" as="sourcePoint"/>
                        <mxPoint x="790" y="220" as="targetPoint"/>
                    </mxGeometry>
                </mxCell>
                <mxCell id="6Ajl2OQ8VZDq9jOoMLi9-1" value="" style="verticalLabelPosition=bottom;verticalAlign=top;html=1;shape=mxgraph.basic.half_circle;rotation=-180;fillColor=#CCCCCC;fillStyle=auto;gradientColor=none;" parent="1" vertex="1">
                    <mxGeometry x="540" y="620" width="120" height="60" as="geometry"/>
                </mxCell>
                <mxCell id="6Ajl2OQ8VZDq9jOoMLi9-2" value="" style="verticalLabelPosition=bottom;verticalAlign=top;html=1;shape=mxgraph.basic.half_circle;rotation=-180;fillColor=#CCCCCC;fillStyle=auto;gradientColor=none;" parent="1" vertex="1">
                    <mxGeometry x="700" y="620" width="120" height="60" as="geometry"/>
                </mxCell>
                <mxCell id="6Ajl2OQ8VZDq9jOoMLi9-3" value="" style="verticalLabelPosition=bottom;verticalAlign=top;html=1;shape=mxgraph.basic.half_circle;rotation=-180;fillColor=#CCCCCC;fillStyle=auto;gradientColor=none;" parent="1" vertex="1">
                    <mxGeometry x="380" y="620" width="120" height="60" as="geometry"/>
                </mxCell>
                <mxCell id="6Ajl2OQ8VZDq9jOoMLi9-4" value="" style="endArrow=classic;html=1;rounded=0;" parent="1" edge="1">
                    <mxGeometry width="50" height="50" relative="1" as="geometry">
                        <mxPoint x="200" y="680" as="sourcePoint"/>
                        <mxPoint x="1000" y="680" as="targetPoint"/>
                    </mxGeometry>
                </mxCell>
                <mxCell id="6Ajl2OQ8VZDq9jOoMLi9-5" value="" style="endArrow=classic;html=1;rounded=0;exitX=0;exitY=1;exitDx=0;exitDy=0;" parent="1" source="6Ajl2OQ8VZDq9jOoMLi9-24" edge="1">
                    <mxGeometry width="50" height="50" relative="1" as="geometry">
                        <mxPoint x="600" y="707" as="sourcePoint"/>
                        <mxPoint x="600" y="540" as="targetPoint"/>
                    </mxGeometry>
                </mxCell>
                <mxCell id="6Ajl2OQ8VZDq9jOoMLi9-6" value="" style="endArrow=none;html=1;rounded=0;strokeWidth=2;" parent="1" edge="1">
                    <mxGeometry width="50" height="50" relative="1" as="geometry">
                        <mxPoint x="760" y="680" as="sourcePoint"/>
                        <mxPoint x="760" y="670" as="targetPoint"/>
                    </mxGeometry>
                </mxCell>
                <mxCell id="6Ajl2OQ8VZDq9jOoMLi9-7" value="" style="endArrow=none;html=1;rounded=0;strokeWidth=2;" parent="1" edge="1">
                    <mxGeometry width="50" height="50" relative="1" as="geometry">
                        <mxPoint x="920" y="680" as="sourcePoint"/>
                        <mxPoint x="920" y="670" as="targetPoint"/>
                    </mxGeometry>
                </mxCell>
                <mxCell id="6Ajl2OQ8VZDq9jOoMLi9-8" value="" style="endArrow=none;html=1;rounded=0;strokeWidth=2;" parent="1" edge="1">
                    <mxGeometry width="50" height="50" relative="1" as="geometry">
                        <mxPoint x="280" y="680" as="sourcePoint"/>
                        <mxPoint x="280" y="670" as="targetPoint"/>
                    </mxGeometry>
                </mxCell>
                <mxCell id="6Ajl2OQ8VZDq9jOoMLi9-9" value="" style="endArrow=none;html=1;rounded=0;strokeWidth=2;" parent="1" edge="1">
                    <mxGeometry width="50" height="50" relative="1" as="geometry">
                        <mxPoint x="440" y="680" as="sourcePoint"/>
                        <mxPoint x="440" y="670" as="targetPoint"/>
                    </mxGeometry>
                </mxCell>
                <mxCell id="6Ajl2OQ8VZDq9jOoMLi9-10" value="" style="endArrow=none;html=1;rounded=0;strokeWidth=2;" parent="1" edge="1">
                    <mxGeometry width="50" height="50" relative="1" as="geometry">
                        <mxPoint x="840" y="680" as="sourcePoint"/>
                        <mxPoint x="840" y="670" as="targetPoint"/>
                    </mxGeometry>
                </mxCell>
                <mxCell id="6Ajl2OQ8VZDq9jOoMLi9-11" value="" style="endArrow=none;html=1;rounded=0;strokeWidth=2;" parent="1" edge="1">
                    <mxGeometry width="50" height="50" relative="1" as="geometry">
                        <mxPoint x="680" y="680" as="sourcePoint"/>
                        <mxPoint x="680" y="670" as="targetPoint"/>
                    </mxGeometry>
                </mxCell>
                <mxCell id="6Ajl2OQ8VZDq9jOoMLi9-12" value="" style="endArrow=none;html=1;rounded=0;strokeWidth=2;" parent="1" edge="1">
                    <mxGeometry width="50" height="50" relative="1" as="geometry">
                        <mxPoint x="360" y="680" as="sourcePoint"/>
                        <mxPoint x="360" y="670" as="targetPoint"/>
                    </mxGeometry>
                </mxCell>
                <mxCell id="6Ajl2OQ8VZDq9jOoMLi9-13" value="" style="endArrow=none;html=1;rounded=0;strokeWidth=2;" parent="1" edge="1">
                    <mxGeometry width="50" height="50" relative="1" as="geometry">
                        <mxPoint x="520" y="680" as="sourcePoint"/>
                        <mxPoint x="520" y="670" as="targetPoint"/>
                    </mxGeometry>
                </mxCell>
                <mxCell id="6Ajl2OQ8VZDq9jOoMLi9-14" value="" style="endArrow=none;html=1;rounded=0;" parent="1" edge="1">
                    <mxGeometry width="50" height="50" relative="1" as="geometry">
                        <mxPoint x="800" y="680" as="sourcePoint"/>
                        <mxPoint x="800" y="670" as="targetPoint"/>
                    </mxGeometry>
                </mxCell>
                <mxCell id="6Ajl2OQ8VZDq9jOoMLi9-15" value="" style="endArrow=none;html=1;rounded=0;" parent="1" edge="1">
                    <mxGeometry width="50" height="50" relative="1" as="geometry">
                        <mxPoint x="960" y="680" as="sourcePoint"/>
                        <mxPoint x="960" y="670" as="targetPoint"/>
                    </mxGeometry>
                </mxCell>
                <mxCell id="6Ajl2OQ8VZDq9jOoMLi9-16" value="" style="endArrow=none;html=1;rounded=0;" parent="1" edge="1">
                    <mxGeometry width="50" height="50" relative="1" as="geometry">
                        <mxPoint x="320" y="680" as="sourcePoint"/>
                        <mxPoint x="320" y="670" as="targetPoint"/>
                    </mxGeometry>
                </mxCell>
                <mxCell id="6Ajl2OQ8VZDq9jOoMLi9-17" value="" style="endArrow=none;html=1;rounded=0;" parent="1" edge="1">
                    <mxGeometry width="50" height="50" relative="1" as="geometry">
                        <mxPoint x="480" y="680" as="sourcePoint"/>
                        <mxPoint x="480" y="670" as="targetPoint"/>
                    </mxGeometry>
                </mxCell>
                <mxCell id="6Ajl2OQ8VZDq9jOoMLi9-18" value="" style="endArrow=none;html=1;rounded=0;" parent="1" edge="1">
                    <mxGeometry width="50" height="50" relative="1" as="geometry">
                        <mxPoint x="880" y="680" as="sourcePoint"/>
                        <mxPoint x="880" y="670" as="targetPoint"/>
                    </mxGeometry>
                </mxCell>
                <mxCell id="6Ajl2OQ8VZDq9jOoMLi9-19" value="" style="endArrow=none;html=1;rounded=0;" parent="1" edge="1">
                    <mxGeometry width="50" height="50" relative="1" as="geometry">
                        <mxPoint x="720" y="680" as="sourcePoint"/>
                        <mxPoint x="720" y="670" as="targetPoint"/>
                    </mxGeometry>
                </mxCell>
                <mxCell id="6Ajl2OQ8VZDq9jOoMLi9-20" value="" style="endArrow=none;html=1;rounded=0;" parent="1" edge="1">
                    <mxGeometry width="50" height="50" relative="1" as="geometry">
                        <mxPoint x="400" y="680" as="sourcePoint"/>
                        <mxPoint x="400" y="670" as="targetPoint"/>
                    </mxGeometry>
                </mxCell>
                <mxCell id="6Ajl2OQ8VZDq9jOoMLi9-21" value="" style="endArrow=none;html=1;rounded=0;" parent="1" edge="1">
                    <mxGeometry width="50" height="50" relative="1" as="geometry">
                        <mxPoint x="560" y="680" as="sourcePoint"/>
                        <mxPoint x="560" y="670" as="targetPoint"/>
                    </mxGeometry>
                </mxCell>
                <mxCell id="6Ajl2OQ8VZDq9jOoMLi9-22" value="" style="endArrow=none;html=1;rounded=0;" parent="1" edge="1">
                    <mxGeometry width="50" height="50" relative="1" as="geometry">
                        <mxPoint x="640" y="680" as="sourcePoint"/>
                        <mxPoint x="640" y="670" as="targetPoint"/>
                    </mxGeometry>
                </mxCell>
                <mxCell id="6Ajl2OQ8VZDq9jOoMLi9-23" value="" style="endArrow=none;html=1;rounded=0;" parent="1" edge="1">
                    <mxGeometry width="50" height="50" relative="1" as="geometry">
                        <mxPoint x="240" y="680" as="sourcePoint"/>
                        <mxPoint x="240" y="670" as="targetPoint"/>
                    </mxGeometry>
                </mxCell>
                <mxCell id="6Ajl2OQ8VZDq9jOoMLi9-24" value="0" style="text;html=1;strokeColor=none;fillColor=none;align=center;verticalAlign=middle;whiteSpace=wrap;rounded=0;" parent="1" vertex="1">
                    <mxGeometry x="600" y="680" width="10" height="20" as="geometry"/>
                </mxCell>
                <mxCell id="6Ajl2OQ8VZDq9jOoMLi9-25" value="$$\tilde{\omega}$$" style="text;html=1;strokeColor=none;fillColor=none;align=center;verticalAlign=middle;whiteSpace=wrap;rounded=0;" parent="1" vertex="1">
                    <mxGeometry x="1000" y="660" width="30" height="30" as="geometry"/>
                </mxCell>
                <mxCell id="6Ajl2OQ8VZDq9jOoMLi9-26" value="$$\pi/T_\text{s}$$" style="text;html=1;strokeColor=none;fillColor=none;align=center;verticalAlign=middle;whiteSpace=wrap;rounded=0;" parent="1" vertex="1">
                    <mxGeometry x="730" y="680" width="60" height="30" as="geometry"/>
                </mxCell>
                <mxCell id="6Ajl2OQ8VZDq9jOoMLi9-27" value="$$-\pi/T_\text{s}$$" style="text;html=1;strokeColor=none;fillColor=none;align=center;verticalAlign=middle;whiteSpace=wrap;rounded=0;" parent="1" vertex="1">
                    <mxGeometry x="406" y="680" width="60" height="30" as="geometry"/>
                </mxCell>
                <mxCell id="6Ajl2OQ8VZDq9jOoMLi9-28" value="$$-2\pi/T_\text{s}$$" style="text;html=1;strokeColor=none;fillColor=none;align=center;verticalAlign=middle;whiteSpace=wrap;rounded=0;" parent="1" vertex="1">
                    <mxGeometry x="250" y="680" width="60" height="30" as="geometry"/>
                </mxCell>
                <mxCell id="6Ajl2OQ8VZDq9jOoMLi9-29" value="$$2\pi/T_\text{s}$$" style="text;html=1;strokeColor=none;fillColor=none;align=center;verticalAlign=middle;whiteSpace=wrap;rounded=0;" parent="1" vertex="1">
                    <mxGeometry x="890" y="680" width="60" height="30" as="geometry"/>
                </mxCell>
                <mxCell id="6Ajl2OQ8VZDq9jOoMLi9-56" value="$$\pi/(2T_\text{s})$$" style="text;html=1;strokeColor=none;fillColor=none;align=center;verticalAlign=middle;whiteSpace=wrap;rounded=0;" parent="1" vertex="1">
                    <mxGeometry x="650" y="640" width="60" height="30" as="geometry"/>
                </mxCell>
                <mxCell id="6Ajl2OQ8VZDq9jOoMLi9-57" value="$$3\pi/(2T_\text{s})$$" style="text;html=1;strokeColor=none;fillColor=none;align=center;verticalAlign=middle;whiteSpace=wrap;rounded=0;" parent="1" vertex="1">
                    <mxGeometry x="810" y="680" width="60" height="30" as="geometry"/>
                </mxCell>
                <mxCell id="6Ajl2OQ8VZDq9jOoMLi9-58" value="$$-\pi/(2T_\text{s})$$" style="text;html=1;strokeColor=none;fillColor=none;align=center;verticalAlign=middle;whiteSpace=wrap;rounded=0;" parent="1" vertex="1">
                    <mxGeometry x="490" y="640" width="60" height="30" as="geometry"/>
                </mxCell>
                <mxCell id="6Ajl2OQ8VZDq9jOoMLi9-60" value="$$-3\pi/(2T_\text{s})$$" style="text;html=1;strokeColor=none;fillColor=none;align=center;verticalAlign=middle;whiteSpace=wrap;rounded=0;" parent="1" vertex="1">
                    <mxGeometry x="330" y="680" width="60" height="30" as="geometry"/>
                </mxCell>
                <mxCell id="6Ajl2OQ8VZDq9jOoMLi9-61" value="" style="endArrow=none;html=1;rounded=0;exitX=0.5;exitY=1;exitDx=0;exitDy=0;exitPerimeter=0;" parent="1" source="n-7C0_cSte5bx0V1YNL7-46" edge="1">
                    <mxGeometry width="50" height="50" relative="1" as="geometry">
                        <mxPoint x="610" y="190" as="sourcePoint"/>
                        <mxPoint x="630" y="190" as="targetPoint"/>
                    </mxGeometry>
                </mxCell>
                <mxCell id="6Ajl2OQ8VZDq9jOoMLi9-62" value="$$|X_\text{d}(0)|$$" style="text;html=1;strokeColor=none;fillColor=none;align=center;verticalAlign=middle;whiteSpace=wrap;rounded=0;" parent="1" vertex="1">
                    <mxGeometry x="634" y="170" width="40" height="30" as="geometry"/>
                </mxCell>
                <mxCell id="6Ajl2OQ8VZDq9jOoMLi9-65" value="" style="endArrow=none;html=1;rounded=0;exitX=0.5;exitY=1;exitDx=0;exitDy=0;exitPerimeter=0;" parent="1" edge="1">
                    <mxGeometry width="50" height="50" relative="1" as="geometry">
                        <mxPoint x="600" y="619.84" as="sourcePoint"/>
                        <mxPoint x="630" y="619.84" as="targetPoint"/>
                    </mxGeometry>
                </mxCell>
                <mxCell id="6Ajl2OQ8VZDq9jOoMLi9-66" value="" style="endArrow=none;html=1;rounded=0;dashed=1;" parent="1" edge="1">
                    <mxGeometry width="50" height="50" relative="1" as="geometry">
                        <mxPoint x="679" y="720" as="sourcePoint"/>
                        <mxPoint x="679" y="680" as="targetPoint"/>
                    </mxGeometry>
                </mxCell>
                <mxCell id="6Ajl2OQ8VZDq9jOoMLi9-67" value="" style="endArrow=none;html=1;rounded=0;dashed=1;" parent="1" edge="1">
                    <mxGeometry width="50" height="50" relative="1" as="geometry">
                        <mxPoint x="520" y="720" as="sourcePoint"/>
                        <mxPoint x="519.8" y="680" as="targetPoint"/>
                    </mxGeometry>
                </mxCell>
                <mxCell id="6Ajl2OQ8VZDq9jOoMLi9-68" value="" style="endArrow=classic;html=1;rounded=0;startArrow=classic;startFill=1;dashed=1;" parent="1" edge="1">
                    <mxGeometry width="50" height="50" relative="1" as="geometry">
                        <mxPoint x="520" y="720" as="sourcePoint"/>
                        <mxPoint x="680" y="720" as="targetPoint"/>
                    </mxGeometry>
                </mxCell>
                <mxCell id="6Ajl2OQ8VZDq9jOoMLi9-69" value="\(y_\text{d}\) 1st Nyquist zone" style="text;html=1;strokeColor=none;fillColor=none;align=center;verticalAlign=middle;whiteSpace=wrap;rounded=0;" parent="1" vertex="1">
                    <mxGeometry x="530" y="730" width="140" height="19" as="geometry"/>
                </mxCell>
                <mxCell id="6Ajl2OQ8VZDq9jOoMLi9-70" value="$$Y_\text{d}$$" style="text;html=1;strokeColor=none;fillColor=none;align=center;verticalAlign=middle;whiteSpace=wrap;rounded=0;" parent="1" vertex="1">
                    <mxGeometry x="500" y="530" width="40" height="30" as="geometry"/>
                </mxCell>
                <mxCell id="6Ajl2OQ8VZDq9jOoMLi9-71" value="" style="endArrow=classic;html=1;rounded=0;dashed=1;entryX=0.739;entryY=0.978;entryDx=0;entryDy=0;entryPerimeter=0;" parent="1" source="6Ajl2OQ8VZDq9jOoMLi9-70" target="6Ajl2OQ8VZDq9jOoMLi9-1" edge="1">
                    <mxGeometry width="50" height="50" relative="1" as="geometry">
                        <mxPoint x="520" y="600" as="sourcePoint"/>
                        <mxPoint x="580" y="570" as="targetPoint"/>
                    </mxGeometry>
                </mxCell>
                <mxCell id="6Ajl2OQ8VZDq9jOoMLi9-72" value="" style="endArrow=classic;html=1;rounded=0;dashed=1;" parent="1" source="6Ajl2OQ8VZDq9jOoMLi9-70" target="6Ajl2OQ8VZDq9jOoMLi9-3" edge="1">
                    <mxGeometry width="50" height="50" relative="1" as="geometry">
                        <mxPoint x="520" y="580" as="sourcePoint"/>
                        <mxPoint x="520" y="600" as="targetPoint"/>
                    </mxGeometry>
                </mxCell>
                <mxCell id="6Ajl2OQ8VZDq9jOoMLi9-73" value="" style="endArrow=classic;html=1;rounded=0;dashed=1;" parent="1" source="6Ajl2OQ8VZDq9jOoMLi9-70" target="6Ajl2OQ8VZDq9jOoMLi9-55" edge="1">
                    <mxGeometry width="50" height="50" relative="1" as="geometry">
                        <mxPoint x="510" y="570" as="sourcePoint"/>
                        <mxPoint x="350" y="540" as="targetPoint"/>
                    </mxGeometry>
                </mxCell>
                <mxCell id="6Ajl2OQ8VZDq9jOoMLi9-74" value="" style="endArrow=classic;html=1;rounded=0;dashed=1;" parent="1" source="6Ajl2OQ8VZDq9jOoMLi9-70" target="6Ajl2OQ8VZDq9jOoMLi9-2" edge="1">
                    <mxGeometry width="50" height="50" relative="1" as="geometry">
                        <mxPoint x="540" y="570" as="sourcePoint"/>
                        <mxPoint x="730" y="570" as="targetPoint"/>
                    </mxGeometry>
                </mxCell>
                <mxCell id="6Ajl2OQ8VZDq9jOoMLi9-64" value="$$|X_\text{d}(0)|/R$$" style="text;html=1;strokeColor=none;fillColor=#FFFFFF;align=center;verticalAlign=middle;whiteSpace=wrap;rounded=0;" parent="1" vertex="1">
                    <mxGeometry x="640" y="600" width="40" height="30" as="geometry"/>
                </mxCell>
                <mxCell id="6Ajl2OQ8VZDq9jOoMLi9-75" value="" style="endArrow=classic;html=1;rounded=0;dashed=1;" parent="1" source="6Ajl2OQ8VZDq9jOoMLi9-70" target="6Ajl2OQ8VZDq9jOoMLi9-54" edge="1">
                    <mxGeometry width="50" height="50" relative="1" as="geometry">
                        <mxPoint x="550" y="564" as="sourcePoint"/>
                        <mxPoint x="710" y="634" as="targetPoint"/>
                    </mxGeometry>
                </mxCell>
            </root>
        </mxGraphModel>
    </diagram>
</mxfile>